<!DOCTYPE svg PUBLIC "-//W3C//DTD SVG 1.1//EN" "http://www.w3.org/Graphics/SVG/1.1/DTD/svg11.dtd">
<!-- Uploaded to: SVG Repo, www.svgrepo.com, Transformed by: SVG Repo Mixer Tools -->
<svg fill="#000000" width="800px" height="800px" viewBox="0 0 24 24" id="file-13" data-name="Flat Color" xmlns="http://www.w3.org/2000/svg" class="icon flat-color">
<g id="SVGRepo_bgCarrier" stroke-width="0"/>
<g id="SVGRepo_tracerCarrier" stroke-linecap="round" stroke-linejoin="round"/>
<g id="SVGRepo_iconCarrier">
<path id="primary" d="M4.29,6.29l4-4A1,1,0,0,1,9,2h9a2,2,0,0,1,2,2V20a2,2,0,0,1-2,2H6a2,2,0,0,1-2-2V7A1,1,0,0,1,4.29,6.29Z" style="fill: #000000;"/>
<path id="secondary" d="M7,17a1,1,0,0,1,1-1h8a1,1,0,0,1,0,2H8A1,1,0,0,1,7,17Zm0-4a1,1,0,0,1,1-1h8a1,1,0,0,1,0,2H8A1,1,0,0,1,7,13ZM7,9A1,1,0,0,1,8,8h8a1,1,0,0,1,0,2H8A1,1,0,0,1,7,9Z" style="fill: #2eba2c;"/>
</g>
</svg>